<?xml version="1.0" encoding="utf-8"?>
<!-- Generator: Adobe Illustrator 18.1.0, SVG Export Plug-In . SVG Version: 6.00 Build 0)  -->
<!DOCTYPE svg PUBLIC "-//W3C//DTD SVG 1.1//EN" "http://www.w3.org/Graphics/SVG/1.1/DTD/svg11.dtd">
<svg version="1.1" id="Warstwa_1" xmlns="http://www.w3.org/2000/svg" xmlns:xlink="http://www.w3.org/1999/xlink" x="0px" y="0px"
	 viewBox="0 0 487.9 277.8" enable-background="new 0 0 487.9 277.8" xml:space="preserve">
<g>
	<path d="M37.5,265.3L27,116c-0.2-3-0.1-6,0.2-9c0.3-3,1.5-6.8,3.4-11.5c1.9-4.7,4.6-8.9,8.2-12.6c3.6-3.7,9.1-7.1,16.5-10.1
		c7.4-3,16.2-4.9,26.2-5.6c5.2-0.4,10.2-0.3,15.2,0.3c5,0.6,10.5,2.2,16.6,5c6.1,2.8,11.4,6.5,16,11.3c4.6,4.8,8.7,11.7,12.2,20.7
		c3.5,9,5.7,19.5,6.5,31.6c1,13.8-0.1,25.7-3.2,35.7c-3.1,10-7.8,17.6-14,22.8c-6.3,5.2-12.8,9-19.5,11.5
		c-6.7,2.5-14.2,4.1-22.4,4.6c-10.3,0.7-20.2,0-29.9-2l3.8,54.8L37.5,265.3z M57.4,184.4c9.9,3,19.9,4.2,30,3.5
		c5.7-0.4,10.6-1.3,14.5-2.7c4-1.4,7.8-3.7,11.5-7.1c3.7-3.4,6.3-8.4,7.9-15.1c1.6-6.7,2-15.1,1.3-25.2c-0.8-10.8-2.4-19.7-4.9-26.6
		c-2.5-7-5.8-12-9.9-15s-8-5-11.8-5.9c-3.8-0.9-8.1-1.2-12.9-0.9c-21.4,1.5-31.7,9.2-30.7,23.1L57.4,184.4z"/>
	<path d="M158.9,144.8c-3.4-48.9,15.3-74.7,56.2-77.6c0.1,0,0.2,0,0.3,0c18.6-1.3,33.9,3.7,45.8,15.1c12,11.4,18.6,27.2,20.1,47.6
		c0.5,6.6,0.6,13,0.5,19.1l-96,6.7c4.7,23.6,18.6,34.6,41.7,33c18.8-1.3,34.5-5.9,47.3-13.8l1.6,23.2c-13.9,7-29.9,11.2-47.9,12.4
		c-0.3,0-0.5,0-0.8,0.1c-8.2,0.6-15.8,0.1-22.8-1.5c-7-1.6-14-4.5-20.8-8.7c-6.9-4.3-12.5-11.1-17-20.6
		C162.6,170.2,159.9,158.6,158.9,144.8z M183.8,132.9l71.4-5c-0.7-4.6-1.8-9-3.3-13.1c-1.5-4.1-3.7-8.3-6.5-12.5
		c-2.8-4.2-6.6-7.4-11.5-9.6c-4.9-2.3-10.6-3.2-17.1-2.7c-11.7,0.8-20.1,4.4-25.1,10.8C186.5,107.3,183.9,118,183.8,132.9z"/>
	<path d="M304,209.3L290.6,17.5l25.4-1.8l13.4,191.9L304,209.3z"/>
	<path d="M357.4,265.3L346.9,116c-0.2-3-0.1-6,0.2-9c0.3-3,1.5-6.8,3.4-11.5c1.9-4.7,4.6-8.9,8.2-12.6c3.6-3.7,9.1-7.1,16.5-10.1
		c7.4-3,16.2-4.9,26.2-5.6c5.2-0.4,10.2-0.3,15.2,0.3c5,0.6,10.5,2.2,16.6,5c6.1,2.8,11.4,6.5,16,11.3c4.6,4.8,8.7,11.7,12.2,20.7
		c3.5,9,5.7,19.5,6.5,31.6c1,13.8-0.1,25.7-3.2,35.7c-3.1,10-7.8,17.6-14,22.8c-6.3,5.2-12.8,9-19.5,11.5s-14.2,4.1-22.4,4.6
		c-10.3,0.7-20.2,0-29.9-2l3.8,54.8L357.4,265.3z M377.3,184.4c9.9,3,19.9,4.2,30,3.5c5.7-0.4,10.6-1.3,14.5-2.7
		c4-1.4,7.8-3.7,11.5-7.1c3.7-3.4,6.3-8.4,7.9-15.1c1.6-6.7,2-15.1,1.3-25.2c-0.8-10.8-2.4-19.7-4.9-26.6c-2.5-7-5.8-12-9.9-15
		c-4-3-8-5-11.8-5.9c-3.8-0.9-8.1-1.2-12.9-0.9c-21.4,1.5-31.7,9.2-30.7,23.1L377.3,184.4z"/>
</g>
<g>
</g>
<g>
</g>
<g>
</g>
<g>
</g>
<g>
</g>
<g>
</g>
</svg>
