<?xml version="1.0" encoding="utf-8"?>
<!DOCTYPE svg PUBLIC "-//W3C//DTD SVG 1.1//EN" "http://www.w3.org/Graphics/SVG/1.1/DTD/svg11.dtd">
<svg version="1.1" id="Warstwa_1" xmlns="http://www.w3.org/2000/svg" xmlns:xlink="http://www.w3.org/1999/xlink" x="0px" y="0px"
	 viewBox="0 0 512 512" enable-background="new 0 0 512 512" xml:space="preserve">
<!-- <rect fill="#D25800" width="512" height="512"/> -->
<g>
	<path fill="#FFFFFF" d="M2.8,506.3c28.4-77.2,96.8-96.6,166-114.4c3.6-0.9,8.8,1.6,12.3,4c47.1,33.1,110.2,34,158-1.2
		c2.6-1.9,6.9-3.4,9.8-2.7c45.8,10.1,89.5,25,126.6,55.5c19.3,15.9,30.7,36.1,39.2,58.7c0,2.8,0,5.6,0,8.3c-170.7,0-341.3,0-512,0
		C2.8,511.8,2.8,509,2.8,506.3z"/>
	<path fill="#FFFFFF" d="M137.4,222.3c1.8-41.1,19-90,67.9-123c33.6-22.6,79.4-21.7,111.9,2.4c49.5,36.6,66.4,88.1,63.9,147.2
		c-1.4,32.3-11.6,62.2-30.2,89.1c-48.5,69.8-136.4,69.3-183.5-1.3C146.8,305.8,137.4,274.8,137.4,222.3z"/>
</g>
</svg>
